<svg width="340" height="201.17682499425638" viewBox="0 0 340 201.17682499425638" class="css-1j8o68f"><defs id="SvgjsDefs1586"></defs><g id="SvgjsG1587" featurekey="symbolFeature-0" transform="matrix(2.6533996459438,0,0,2.6533996459438,106.91840786472902,-7.9601989378314)" fill="#ffa3ac"><g xmlns="http://www.w3.org/2000/svg"><path d="M24,3C12.011,3,2.292,12.719,2.292,24.708c0,11.989,9.719,21.708,21.708,21.708c11.99,0,21.708-9.719,21.708-21.708   C45.709,12.719,35.99,3,24,3z M24,7c9,0,16.437,6.753,17.549,15.456c-2.883,0.198-9.537-2.058-17.55-2.058   c-8.012,0-14.665,2.256-17.548,2.058C7.563,13.754,15,7,24,7z M28.542,27.424c0,2.504-2.037,4.541-4.541,4.541   c-2.504,0-4.542-2.037-4.542-4.541c0-2.503,2.038-4.541,4.542-4.541C26.505,22.883,28.542,24.92,28.542,27.424z M6.337,25.591   c1.96-0.049,4.094,1.126,4.97,2.849l1.394,2.741c0.969,1.908,0.509,4.69-1.025,6.184l-0.018,0.017   C8.552,34.355,6.566,30.203,6.337,25.591z M18.333,41.47c-0.41-0.49-0.736-1.034-0.918-1.618l-0.286-0.917   c-0.635-2.044,0.596-3.716,2.736-3.716h8.269c2.14,0,3.371,1.672,2.735,3.716l-0.284,0.917c-0.182,0.584-0.508,1.128-0.918,1.618   c-1.782,0.604-3.684,0.946-5.667,0.946C22.017,42.416,20.115,42.073,18.333,41.47z M36.343,37.382l-0.018-0.018   c-1.534-1.493-1.995-4.275-1.025-6.184l1.394-2.741c0.875-1.724,3.011-2.898,4.971-2.848   C41.436,30.204,39.449,34.356,36.343,37.382z"></path><path d="M21.515,27.424c0,1.37,1.115,2.485,2.486,2.485c1.37,0,2.485-1.115,2.485-2.485s-1.115-2.485-2.485-2.485   C22.63,24.938,21.515,26.054,21.515,27.424z"></path></g></g><g id="SvgjsG1588" featurekey="nameFeature-0" transform="matrix(1.2449718641177183,0,0,1.2449718641177183,-0.7892083516642785,122.06738839094399)" fill="#ffa3ac"><path d="M14.32 13.399999999999999 c0.72 0.2 1.2 0.96 1.12 1.76 c-0.12 0.4 -0.2 0.8 -0.32 1.2 c-0.8 2.72 -1.64 5.44 -2.44 8.16 l-2.52 8.88 c-0.4 1.36 -0.84 2.68 -1.32 3.96 c-0.16 0.4 -0.36 0.8 -0.6 1.12 c-0.8 0.88 -1.96 0.8 -2.64 -0.2 c-0.2 -0.32 -0.36 -0.72 -0.48 -1.12 c-0.48 -1.6 -0.92 -3.16 -1.32 -4.72 c-0.92 -3.48 -1.6 -7 -2.24 -10.52 c-0.28 -1.56 -0.44 -3.16 -0.64 -4.72 c-0.08 -0.76 -0.2 -1.48 -0.28 -2.24 c-0.04 -0.44 0.12 -0.8 0.4 -1.12 c0.72 -0.8 1.92 -0.6 2.32 0.36 c0.16 0.44 0.28 0.92 0.32 1.36 c0.48 4.04 1.12 8.04 2 12 c0.36 1.72 0.84 3.44 1.28 5.16 c0 0.04 0.12 0.08 0.2 0.12 c0.04 0 0.08 -0.08 0.12 -0.12 l0.36 -1.16 c0.24 -0.84 0.4 -1.64 0.64 -2.44 l2.28 -7.8 c0.6 -2.04 1.2 -4.12 1.8 -6.16 c0.08 -0.28 0.16 -0.56 0.28 -0.8 c0.32 -0.72 1.04 -1.16 1.68 -0.96 z M21.461000000000002 23.16 l0.04 0 l0 -7.96 c0 -0.48 0 -0.92 0.04 -1.4 c0.04 -0.32 0.12 -0.64 0.24 -0.96 c0.2 -0.52 0.68 -0.72 1.24 -0.76 c0.52 0 0.96 0.24 1.24 0.76 c0.2 0.36 0.28 0.76 0.28 1.2 c-0.08 1.48 -0.12 2.96 -0.12 4.48 c-0.04 2 -0.04 4 0 6 c0.04 3.52 0.2 7 0.28 10.48 c0.04 0.84 0.12 1.68 0.16 2.52 c0 0.36 -0.08 0.76 -0.16 1.08 c-0.2 0.64 -0.68 0.88 -1.28 0.92 c-0.56 0 -1.04 -0.24 -1.24 -0.76 c-0.2 -0.36 -0.28 -0.76 -0.32 -1.2 c-0.08 -0.6 -0.04 -1.2 -0.08 -1.8 l-0.24 -6.28 c-0.08 -2.12 -0.04 -4.2 -0.08 -6.32 z M35.322 20.84 l-0.48 -1.16 c-0.16 0.68 -0.28 1.2 -0.32 1.68 c-0.16 1.48 -0.28 3 -0.4 4.48 c-0.16 2.36 -0.28 4.76 -0.4 7.12 c-0.04 0.6 -0.04 1.2 0 1.8 c0.04 1.2 0.08 2.36 0.16 3.52 c0 0.12 0 0.28 -0.04 0.4 c-0.08 0.76 -0.56 1.24 -1.24 1.32 c-0.72 0.08 -1.28 -0.24 -1.52 -0.96 c-0.16 -0.48 -0.24 -1 -0.24 -1.48 c-0.04 -2.56 -0.08 -5.16 0 -7.72 c0.04 -1.76 0.28 -3.52 0.44 -5.28 c0.08 -1.08 0.2 -2.16 0.28 -3.2 c0.2 -2.36 0.6 -4.64 0.96 -6.96 c0.04 -0.36 0.16 -0.72 0.28 -1.04 c0.44 -1 1.8 -1.28 2.6 -0.52 c0.24 0.24 0.48 0.56 0.64 0.88 c0.24 0.56 0.44 1.12 0.64 1.72 c1 3.12 2 6.28 3.08 9.44 c0.84 2.48 1.8 4.88 2.72 7.32 c0.08 0.2 0.16 0.36 0.28 0.52 c0 0.04 0.08 0.04 0.12 0.04 s0.16 -0.04 0.16 -0.12 c0.24 -1.64 0.44 -3.32 0.64 -4.96 c0.28 -2.08 0.52 -4.16 0.76 -6.28 c0.12 -0.96 0.2 -1.92 0.32 -2.92 l0.36 -3.48 c0.04 -0.36 0.16 -0.72 0.24 -1.08 c0.12 -0.4 0.4 -0.72 0.8 -0.96 c0.88 -0.52 2 0.04 2.04 1.08 c0.04 0.28 0 0.56 -0.04 0.84 l-0.48 4 c-0.44 3.68 -0.8 7.32 -1.24 11 c-0.32 2.56 -0.68 5.16 -1.08 7.76 c-0.04 0.36 -0.16 0.72 -0.28 1.08 c-0.24 0.64 -0.72 1 -1.36 1.04 c-0.64 0.08 -1.2 -0.2 -1.56 -0.72 c-0.24 -0.44 -0.48 -0.92 -0.68 -1.4 c-1.04 -2.6 -2.12 -5.16 -3.08 -7.8 c-1.08 -2.96 -1.88 -6.08 -3.08 -9 z M59.383 37 l0.04 -10.36 l0.04 0 l0 -8.4 l0 -2.24 c0 -0.76 -0.04 -1 -0.96 -0.88 c-0.84 0.12 -1.76 0.16 -2.64 0.12 c-0.84 -0.04 -1.32 -0.44 -1.52 -1.2 c-0.12 -0.56 0.16 -1.28 0.68 -1.52 c0.4 -0.12 0.8 -0.24 1.24 -0.28 c1.96 -0.12 3.88 -0.2 5.84 -0.32 c0.76 -0.04 1.52 -0.08 2.24 -0.16 c0.56 -0.04 1.12 -0.04 1.68 0.12 c0.56 0.2 0.92 0.56 1 1.2 c0.08 0.6 -0.2 1.08 -0.72 1.36 c-0.28 0.16 -0.64 0.24 -0.96 0.28 c-0.4 0.04 -0.84 0 -1.24 0.04 c-0.48 0.04 -0.92 0.08 -1.36 0.2 c-0.16 0.04 -0.28 0.24 -0.36 0.4 c-0.04 0.16 0 0.36 0 0.56 c0.04 3 -0.08 6.04 -0.08 9.08 l0 12.04 c0 0.4 0 0.84 -0.04 1.24 c-0.08 0.76 -0.72 1.36 -1.4 1.32 c-0.64 0 -1.28 -0.56 -1.4 -1.2 c-0.08 -0.48 -0.08 -0.92 -0.08 -1.4 z M78.56400000000001 20.6 c1.6 0 7.64 0.08 9.08 0.08 c0.36 0 0.76 0 1.12 -0.04 c0.16 0 0.32 -0.24 0.28 -0.4 c-0.56 -1.96 -1.28 -3.8 -2.68 -5.32 c-0.36 -0.4 -0.8 -0.76 -1.28 -1.08 c-0.96 -0.6 -2 -0.64 -3.04 -0.12 c-0.72 0.36 -1.36 0.84 -1.88 1.44 c-1.16 1.4 -2 2.92 -2.56 4.64 c-0.08 0.12 -0.12 0.28 -0.08 0.4 c0 0.12 0.12 0.28 0.2 0.28 c0.28 0.08 0.56 0.12 0.84 0.12 z M77.964 23.48 l-1 0 c-0.24 0 -0.44 0.16 -0.48 0.4 c-0.12 0.4 -0.2 0.84 -0.24 1.24 c-0.32 2.56 -0.44 5.12 -0.16 7.68 c0.2 1.6 0.44 3.12 0.88 4.68 c0.08 0.24 0.16 0.52 0.16 0.8 c0.08 0.68 -0.32 1.28 -0.96 1.52 c-0.56 0.24 -1.24 0 -1.64 -0.52 c-0.16 -0.28 -0.28 -0.56 -0.4 -0.88 c-0.24 -1 -0.52 -2 -0.72 -3 c-0.28 -1.48 -0.4 -2.96 -0.4 -4.44 c0.04 -1.56 -0.04 -3.08 0.12 -4.64 c0.32 -3.64 1.2 -7.16 2.96 -10.4 c0.84 -1.52 1.88 -2.92 3.28 -4 c1.12 -0.88 2.4 -1.44 3.84 -1.52 c1.16 -0.08 2.28 0.24 3.32 0.84 c1.16 0.68 2.08 1.6 2.84 2.68 c1.16 1.6 1.92 3.4 2.48 5.28 c0.92 3.12 1.24 6.32 1.16 9.56 c-0.08 3.04 -0.56 6.04 -1.48 8.96 c-0.16 0.48 -0.36 0.96 -0.6 1.4 c-0.32 0.56 -1.04 0.84 -1.72 0.6 c-0.6 -0.24 -1.04 -0.92 -0.92 -1.56 c0.08 -0.44 0.24 -0.84 0.36 -1.2 c0.72 -2.28 1.2 -4.6 1.28 -7 c0.04 -0.72 0.16 -1.4 0.16 -2.12 c-0.04 -1.16 -0.12 -2.32 -0.24 -3.48 c-0.04 -0.52 -0.16 -0.64 -0.68 -0.64 c-1.76 -0.04 -9.48 -0.24 -11.2 -0.24 z M102.625 21.68 c-0.44 1.64 -0.68 3.32 -0.64 5 c0.04 2.6 0.48 5.08 1.68 7.44 c0.56 1.12 1.32 2.12 2.28 3 c1.8 1.6 4.36 1.64 6.16 0.24 c1.16 -0.88 2 -1.96 2.64 -3.24 c0.08 -0.2 0 -0.36 -0.24 -0.4 c-0.4 -0.08 -0.84 -0.08 -1.24 -0.2 c-0.72 -0.16 -1.16 -0.68 -1.16 -1.36 s0.56 -1.32 1.32 -1.44 c0.16 -0.04 0.36 -0.04 0.56 -0.04 c1.2 0.08 2.4 0.12 3.64 0.2 c0.44 0.04 0.92 0.04 1.36 0.12 c0.44 0.04 0.84 0.12 1.24 0.28 c0.64 0.28 0.96 0.96 0.8 1.64 c-0.12 0.56 -0.68 1.04 -1.28 1.12 c-0.24 0 -0.48 0 -0.72 -0.04 c-0.72 -0.12 -1.12 0.24 -1.36 0.88 c-0.12 0.4 -0.36 0.76 -0.56 1.12 c-0.88 1.52 -1.92 2.84 -3.4 3.88 c-1.28 0.88 -2.68 1.44 -4.28 1.48 c-2.08 0.08 -3.84 -0.68 -5.36 -2 c-1.36 -1.12 -2.36 -2.52 -3.12 -4.08 c-1 -2.08 -1.6 -4.28 -1.8 -6.56 c-0.16 -1.52 -0.16 -3 0 -4.48 c0.32 -2.92 1.16 -5.68 2.72 -8.16 c0.72 -1.12 1.6 -2.04 2.64 -2.88 c1.28 -1 2.76 -1.6 4.36 -1.72 c1.32 -0.12 2.6 0.2 3.8 0.8 c0.96 0.48 1.8 1.12 2.56 1.88 c0.24 0.24 0.44 0.52 0.6 0.8 c0.32 0.6 0.16 1.32 -0.4 1.76 c-0.4 0.36 -1.2 0.4 -1.68 0.08 c-0.2 -0.12 -0.36 -0.28 -0.56 -0.44 c-0.32 -0.32 -0.68 -0.64 -1.04 -0.92 c-1.68 -1.24 -3.44 -1.32 -5.24 -0.28 c-1 0.6 -1.76 1.44 -2.4 2.36 c-0.88 1.24 -1.48 2.68 -1.88 4.16 z M127.32600000000001 30.32 c-0.2 -2.12 -0.24 -4.28 -0.28 -6.64 c0 -1.28 0 -2.76 0.12 -4.24 c0.16 -2.08 0.44 -4.16 0.84 -6.24 c0.08 -0.32 0.2 -0.6 0.36 -0.92 c0.28 -0.68 0.8 -1.12 1.56 -1.2 c0.6 -0.08 1.2 -0.16 1.8 -0.2 c1.96 -0.12 3.92 0.12 5.88 0.2 c0.72 0.04 1.32 0.32 1.64 1.08 c0.28 0.76 -0.24 1.56 -0.76 1.76 c-0.56 0.2 -1.12 0.24 -1.64 0.16 c-1.6 -0.24 -3.2 -0.2 -4.76 -0.2 c-0.24 0 -0.48 0 -0.72 0.04 c-0.32 0.04 -0.48 0.2 -0.56 0.52 c-0.28 1.88 -0.64 3.76 -0.64 5.68 c0 0.32 0.2 0.48 0.52 0.48 c0.24 -0.04 0.48 -0.08 0.72 -0.08 c0.16 -0.04 0.36 -0.08 0.56 -0.08 c0.8 0.04 1.44 0.64 1.52 1.36 c0.04 0.64 -0.44 1.36 -1.2 1.52 c-0.6 0.16 -1.2 0.24 -1.8 0.36 c-0.36 0.04 -0.48 0.2 -0.48 0.56 l0 1.8 c0 1.08 0.12 2.16 0.2 3.2 c0.2 2.52 0.56 5 1.16 7.48 c0.04 0.24 0.12 0.52 0.24 0.8 c0.12 0.44 0.24 0.56 0.68 0.52 c0.52 0 1 -0.08 1.52 -0.12 c1.04 -0.12 2.04 -0.28 3.04 -0.36 c0.44 -0.04 0.84 0.04 1.24 0.12 c0.64 0.16 0.92 0.64 1 1.24 c0.08 0.48 -0.28 1.12 -0.8 1.36 c-0.32 0.12 -0.72 0.2 -1.08 0.24 c-1.24 0.16 -2.48 0.32 -3.72 0.44 c-0.72 0.08 -1.4 0.12 -2.12 0.12 c-1.04 0 -1.8 -0.48 -2.16 -1.44 c-0.4 -1 -0.68 -2.04 -0.92 -3.08 c-0.48 -2.04 -0.72 -4.12 -0.96 -6.24 z M170.20799999999997 29.68 l-0.04 0 c-0.08 -0.24 -0.2 -0.48 -0.36 -0.92 c-0.24 0.84 -0.48 1.48 -0.64 2.16 c-0.4 1.48 -0.76 3 -1.16 4.48 c-0.16 0.68 -0.32 1.36 -0.56 2 c-0.16 0.4 -0.36 0.8 -0.6 1.12 c-0.76 0.88 -2 0.8 -2.64 -0.2 c-0.24 -0.4 -0.48 -0.92 -0.6 -1.4 c-0.44 -1.56 -0.84 -3.16 -1.16 -4.76 c-0.72 -3.44 -1.16 -6.88 -1.64 -10.36 c-0.16 -1.24 -0.2 -2.48 -0.32 -3.76 c-0.08 -0.6 -0.16 -1.2 -0.2 -1.8 c-0.04 -0.36 -0.12 -0.72 -0.12 -1.12 c0 -0.84 0.4 -1.44 1.12 -1.56 c0.84 -0.12 1.44 0.24 1.72 1.08 c0.08 0.24 0.16 0.52 0.2 0.8 c0.12 0.88 0.24 1.76 0.28 2.64 c0.2 3.56 0.76 7.04 1.36 10.52 c0.12 0.76 0.24 1.48 0.4 2.2 c0.08 0.48 0.2 0.92 0.36 1.52 c0.28 -0.52 0.36 -0.96 0.48 -1.36 c0.56 -2 1.16 -4.04 1.76 -6.04 c0.16 -0.52 0.32 -1.08 0.6 -1.56 c0.64 -1.2 2.16 -1.24 2.84 -0.08 c0.28 0.52 0.48 1.12 0.64 1.72 c0.6 2 1.12 4.04 1.72 6.04 c0.12 0.4 0.28 0.8 0.4 1.16 l0 0 l0 0 l0.12 0 l0.16 0 c0.04 -0.12 0.12 -0.24 0.12 -0.4 c0.32 -1.92 0.6 -3.84 0.88 -5.8 c0.44 -3.16 1.08 -6.32 1.88 -9.44 c0.16 -0.64 0.28 -1.28 0.44 -1.92 c0.08 -0.44 0.2 -0.92 0.36 -1.32 c0.28 -0.64 0.96 -0.96 1.64 -0.84 c0.6 0.12 1 0.64 1.04 1.32 c0 0.48 -0.04 1 -0.16 1.52 c-0.44 1.96 -0.92 3.88 -1.32 5.84 c-0.4 2 -0.72 3.96 -1.04 5.92 c-0.48 2.96 -0.92 5.92 -1.4 8.84 c-0.12 0.72 -0.32 1.36 -0.52 2.04 c-0.12 0.36 -0.28 0.72 -0.52 1 c-0.68 0.8 -1.76 0.8 -2.4 -0.04 c-0.28 -0.32 -0.48 -0.8 -0.64 -1.2 c-0.52 -1.56 -1 -3.12 -1.48 -4.68 c-0.36 -1.12 -0.68 -2.24 -1 -3.36 z M201.789 17.92 l-0.08 8.24 l-0.08 0 l0 4.48 c-0.04 2.52 -0.12 5.04 -0.16 7.56 c0 0.28 0 0.56 -0.08 0.84 c-0.16 0.64 -0.8 1.16 -1.4 1.16 c-0.64 -0.04 -1.24 -0.56 -1.36 -1.24 c-0.04 -0.4 -0.08 -0.84 -0.08 -1.24 l0.12 -16.68 c0 -1.72 0.2 -1.64 -1.52 -1.6 c-1.36 0 -2.72 0.04 -4.08 0.08 c-1 0.04 -2.04 0.16 -3.04 0.32 c-0.12 0 -0.28 0.2 -0.32 0.36 c0 0.24 0.04 0.48 0.04 0.72 c0 2.16 -0.08 4.36 0.04 6.56 c0.2 3.12 0.56 6.2 1.2 9.28 c0.12 0.6 0.16 1.2 0.16 1.8 c0 0.68 -0.4 1.12 -1.08 1.32 c-0.52 0.12 -1.2 -0.2 -1.52 -0.76 c-0.12 -0.24 -0.2 -0.52 -0.28 -0.76 c-0.28 -1.52 -0.56 -3.04 -0.8 -4.56 c-0.4 -2.72 -0.64 -5.44 -0.64 -8.2 c0 -1.2 -0.12 -2.36 -0.12 -3.52 c0.04 -2.2 0.16 -4.36 0.24 -6.56 c0.04 -0.68 0.16 -1.4 0.24 -2.08 c0.08 -0.48 0.28 -0.88 0.72 -1.16 c0.88 -0.52 2 0 2.12 1.04 c0.04 0.4 0 0.84 0 1.24 c0 0.56 -0.04 1.12 -0.04 1.68 c0 0.36 0.16 0.48 0.52 0.48 s0.76 0 1.12 -0.04 c1.68 -0.24 3.36 -0.24 5.04 -0.24 l0.96 0 c1.24 0 1.28 0.04 1.28 -1.2 l0 -1.56 c0 -0.28 0.04 -0.56 0.12 -0.8 c0.24 -0.64 0.8 -1 1.44 -0.96 c0.56 0.04 1.08 0.4 1.24 0.96 c0.08 0.36 0.12 0.76 0.12 1.12 c0 1.28 -0.04 2.6 -0.04 3.92 z M208.08999999999997 30.32 c-0.2 -2.12 -0.24 -4.28 -0.28 -6.64 c0 -1.28 0 -2.76 0.12 -4.24 c0.16 -2.08 0.44 -4.16 0.84 -6.24 c0.08 -0.32 0.2 -0.6 0.36 -0.92 c0.28 -0.68 0.8 -1.12 1.56 -1.2 c0.6 -0.08 1.2 -0.16 1.8 -0.2 c1.96 -0.12 3.92 0.12 5.88 0.2 c0.72 0.04 1.32 0.32 1.64 1.08 c0.28 0.76 -0.24 1.56 -0.76 1.76 c-0.56 0.2 -1.12 0.24 -1.64 0.16 c-1.6 -0.24 -3.2 -0.2 -4.76 -0.2 c-0.24 0 -0.48 0 -0.72 0.04 c-0.32 0.04 -0.48 0.2 -0.56 0.52 c-0.28 1.88 -0.64 3.76 -0.64 5.68 c0 0.32 0.2 0.48 0.52 0.48 c0.24 -0.04 0.48 -0.08 0.72 -0.08 c0.16 -0.04 0.36 -0.08 0.56 -0.08 c0.8 0.04 1.44 0.64 1.52 1.36 c0.04 0.64 -0.44 1.36 -1.2 1.52 c-0.6 0.16 -1.2 0.24 -1.8 0.36 c-0.36 0.04 -0.48 0.2 -0.48 0.56 l0 1.8 c0 1.08 0.12 2.16 0.2 3.2 c0.2 2.52 0.56 5 1.16 7.48 c0.04 0.24 0.12 0.52 0.24 0.8 c0.12 0.44 0.24 0.56 0.68 0.52 c0.52 0 1 -0.08 1.52 -0.12 c1.04 -0.12 2.04 -0.28 3.04 -0.36 c0.44 -0.04 0.84 0.04 1.24 0.12 c0.64 0.16 0.92 0.64 1 1.24 c0.08 0.48 -0.28 1.12 -0.8 1.36 c-0.32 0.12 -0.72 0.2 -1.08 0.24 c-1.24 0.16 -2.48 0.32 -3.72 0.44 c-0.72 0.08 -1.4 0.12 -2.12 0.12 c-1.04 0 -1.8 -0.48 -2.16 -1.44 c-0.4 -1 -0.68 -2.04 -0.92 -3.08 c-0.48 -2.04 -0.72 -4.12 -0.96 -6.24 z M226.391 30.32 c-0.2 -2.12 -0.24 -4.28 -0.28 -6.64 c0 -1.28 0 -2.76 0.12 -4.24 c0.16 -2.08 0.44 -4.16 0.84 -6.24 c0.08 -0.32 0.2 -0.6 0.36 -0.92 c0.28 -0.68 0.8 -1.12 1.56 -1.2 c0.6 -0.08 1.2 -0.16 1.8 -0.2 c1.96 -0.12 3.92 0.12 5.88 0.2 c0.72 0.04 1.32 0.32 1.64 1.08 c0.28 0.76 -0.24 1.56 -0.76 1.76 c-0.56 0.2 -1.12 0.24 -1.64 0.16 c-1.6 -0.24 -3.2 -0.2 -4.76 -0.2 c-0.24 0 -0.48 0 -0.72 0.04 c-0.32 0.04 -0.48 0.2 -0.56 0.52 c-0.28 1.88 -0.64 3.76 -0.64 5.68 c0 0.32 0.2 0.48 0.52 0.48 c0.24 -0.04 0.48 -0.08 0.72 -0.08 c0.16 -0.04 0.36 -0.08 0.56 -0.08 c0.8 0.04 1.44 0.64 1.52 1.36 c0.04 0.64 -0.44 1.36 -1.2 1.52 c-0.6 0.16 -1.2 0.24 -1.8 0.36 c-0.36 0.04 -0.48 0.2 -0.48 0.56 l0 1.8 c0 1.08 0.12 2.16 0.2 3.2 c0.2 2.52 0.56 5 1.16 7.48 c0.04 0.24 0.12 0.52 0.24 0.8 c0.12 0.44 0.24 0.56 0.68 0.52 c0.52 0 1 -0.08 1.52 -0.12 c1.04 -0.12 2.04 -0.28 3.04 -0.36 c0.44 -0.04 0.84 0.04 1.24 0.12 c0.64 0.16 0.92 0.64 1 1.24 c0.08 0.48 -0.28 1.12 -0.8 1.36 c-0.32 0.12 -0.72 0.2 -1.08 0.24 c-1.24 0.16 -2.48 0.32 -3.72 0.44 c-0.72 0.08 -1.4 0.12 -2.12 0.12 c-1.04 0 -1.8 -0.48 -2.16 -1.44 c-0.4 -1 -0.68 -2.04 -0.92 -3.08 c-0.48 -2.04 -0.72 -4.12 -0.96 -6.24 z M244.81199999999998 36.4 c-0.2 -2.56 -0.44 -5.12 -0.4 -7.68 c0.04 -2.76 0.2 -5.52 0.44 -8.24 c0.16 -2.08 0.48 -4.16 0.76 -6.24 c0.04 -0.28 0.12 -0.56 0.2 -0.8 c0.32 -0.8 1.04 -1.16 1.8 -0.92 c0.6 0.16 1.08 0.92 1 1.64 c-0.04 0.64 -0.16 1.32 -0.24 1.96 c-0.2 1.56 -0.32 3.12 -0.56 4.72 c-0.24 1.88 -0.24 3.8 -0.28 5.72 c-0.04 0.84 -0.16 1.68 -0.12 2.48 c0.04 1.96 0.16 3.92 0.24 5.88 l0.12 0.84 c0.12 0.88 0.08 1.08 1.24 1.04 c1.24 -0.08 2.44 -0.2 3.64 -0.32 c0.36 -0.04 0.72 -0.04 1.08 0.08 c0.64 0.2 1.08 0.68 1.08 1.28 c0.04 0.64 -0.28 1.08 -0.84 1.36 c-0.2 0.08 -0.44 0.16 -0.64 0.2 c-1.92 0.36 -3.8 0.32 -5.72 0.28 c-0.24 0 -0.48 0 -0.68 -0.08 c-0.96 -0.2 -1.6 -0.72 -1.84 -1.68 c-0.12 -0.52 -0.24 -1.04 -0.28 -1.52 z M263.673 14.760000000000002 c1.28 -1.2 2.84 -1.84 4.6 -1.8 c1.6 0 3 0.56 4.12 1.76 c1.24 1.32 1.52 2.96 1.24 4.68 c-0.12 0.68 -0.8 1.16 -1.4 1.16 c-0.72 0 -1.32 -0.52 -1.4 -1.28 c-0.04 -0.32 0 -0.64 -0.04 -1 c-0.08 -1.6 -1.52 -2.68 -3.12 -2.32 c-1.28 0.28 -2.32 1 -3 2.12 c-1.08 1.84 -1.24 3.76 -0.28 5.76 c0.52 1.04 1.28 1.92 2 2.84 c0.84 1 1.72 2 2.48 3.04 c0.56 0.76 1 1.56 1.48 2.36 c0.56 0.96 0.84 2 0.96 3.08 c0.32 2.72 -1.92 5.28 -4.68 5.36 c-0.76 0 -1.48 -0.2 -2.12 -0.56 c-1.48 -0.8 -2.2 -2.12 -2.4 -3.76 c-0.04 -0.36 0 -0.72 0.2 -1.04 c0.6 -0.84 1.68 -0.96 2.36 -0.08 c0.12 0.2 0.2 0.44 0.28 0.64 c0.12 0.32 0.2 0.64 0.32 0.92 c0.52 1.08 1.96 1.16 2.64 0.16 c0.4 -0.6 0.52 -1.28 0.32 -2 c-0.2 -0.76 -0.56 -1.48 -0.96 -2.16 c-0.84 -1.32 -1.84 -2.48 -2.8 -3.68 c-0.68 -0.84 -1.36 -1.68 -2 -2.52 c-0.56 -0.8 -1 -1.68 -1.28 -2.64 c-1 -3.52 -0.16 -6.56 2.48 -9.04 z"></path></g><g id="SvgjsG1589" featurekey="sloganFeature-0" transform="matrix(0.6327945846606623,0,0,0.6327945846606623,88.84439052418207,188.39734211742646)" fill="#ffa3ac"><path d="M1.8262 20 l0 -14.111 l5.1074 0 c4.502 0 6.7285 2.832 6.7285 7.0508 c0 4.2285 -2.2266 7.0605 -6.7285 7.0605 l-5.1074 0 z M4.7559 17.4121 l2.0313 0 c2.5977 0 3.7891 -1.6211 3.7891 -4.4727 s-1.1914 -4.4727 -3.7891 -4.4727 l-2.0313 0 l0 8.9453 z M26.1278859375 20 l-3.6719 -6.2109 l-0.84961 0 l0 6.2109 l-2.9297 0 l0 -14.111 l5.1172 0 c3.1934 0 4.541 1.8848 4.541 4.2188 c0 1.8945 -1.0742 3.125 -2.9883 3.5352 l4.248 6.3574 l-3.4668 0 z M21.6064859375 8.32 l0 3.3691 l1.7285 0 c1.5625 0 2.1973 -0.66406 2.1973 -1.6797 c0 -1.0059 -0.63477 -1.6895 -2.1973 -1.6895 l-1.7285 0 z M34.0137 20 l0 -14.111 l2.9297 0 l0 14.111 l-2.9297 0 z M51.8312734375 5.888999999999999 l3.1152 0 l-5.2148 14.111 l-3.2227 0 l-5.1855 -14.111 l3.1055 0 l3.7012 10.693 z M67.519765625 8.467 l-5.2344 0 l0 3.2031 l4.6387 0 l0 2.5488 l-4.6387 0 l0 3.1934 l5.2344 0 l0 2.5879 l-8.1836 0 l0 -14.111 l8.1836 0 l0 2.5781 z M90.859265625 5.888999999999999 l-4.6387 7.3535 l0 6.7578 l-2.9395 0 l0 -6.6895 l-4.668 -7.4219 l3.2422 0 l2.8809 4.8047 l2.8906 -4.8047 l3.2324 0 z M101.3623328125 20.19531 c-4.1504 0 -7.2168 -2.832 -7.2168 -7.2559 c0 -4.4336 3.0664 -7.2461 7.2168 -7.2461 c4.1406 0 7.207 2.8125 7.207 7.2461 c0 4.4238 -3.0664 7.2559 -7.207 7.2559 z M101.3623328125 17.5098 c2.4316 0 4.2969 -1.709 4.2969 -4.5703 c0 -2.8516 -1.8652 -4.5508 -4.2969 -4.5508 s-4.2969 1.6992 -4.2969 4.5508 c0 2.8613 1.8652 4.5703 4.2969 4.5703 z M118.759784375 20.19531 c-3.0957 0 -5.5176 -1.582 -5.5176 -5.1367 l0 -9.1699 l2.9297 0 l0 8.7695 c0 2.1484 1.1426 2.9492 2.5879 2.9492 c1.4551 0 2.6074 -0.81055 2.6074 -2.9492 l0 -8.7695 l2.9297 0 l0 9.1699 c0 3.5547 -2.4316 5.1367 -5.5371 5.1367 z M137.3778859375 20 l-3.6719 -6.2109 l-0.84961 0 l0 6.2109 l-2.9297 0 l0 -14.111 l5.1172 0 c3.1934 0 4.541 1.8848 4.541 4.2188 c0 1.8945 -1.0742 3.125 -2.9883 3.5352 l4.248 6.3574 l-3.4668 0 z M132.8564859375 8.32 l0 3.3691 l1.7285 0 c1.5625 0 2.1973 -0.66406 2.1973 -1.6797 c0 -1.0059 -0.63477 -1.6895 -2.1973 -1.6895 l-1.7285 0 z M152.7295203125 20 l0 -14.111 l5.1074 0 c4.502 0 6.7285 2.832 6.7285 7.0508 c0 4.2285 -2.2266 7.0605 -6.7285 7.0605 l-5.1074 0 z M155.6592203125 17.4121 l2.0313 0 c2.5977 0 3.7891 -1.6211 3.7891 -4.4727 s-1.1914 -4.4727 -3.7891 -4.4727 l-2.0313 0 l0 8.9453 z M177.03120625 20 l-3.6719 -6.2109 l-0.84961 0 l0 6.2109 l-2.9297 0 l0 -14.111 l5.1172 0 c3.1934 0 4.541 1.8848 4.541 4.2188 c0 1.8945 -1.0742 3.125 -2.9883 3.5352 l4.248 6.3574 l-3.4668 0 z M172.50980625 8.32 l0 3.3691 l1.7285 0 c1.5625 0 2.1973 -0.66406 2.1973 -1.6797 c0 -1.0059 -0.63477 -1.6895 -2.1973 -1.6895 l-1.7285 0 z M193.1008203125 8.467 l-5.2344 0 l0 3.2031 l4.6387 0 l0 2.5488 l-4.6387 0 l0 3.1934 l5.2344 0 l0 2.5879 l-8.1836 0 l0 -14.111 l8.1836 0 l0 2.5781 z M207.8325 20 l-1.0254 -2.9102 l-5.9277 0 l-1.0254 2.9102 l-2.998 0 l5.1953 -14.111 l3.584 0 l5.1953 14.111 l-2.998 0 z M201.7383 14.6387 l4.209 0 l-2.0996 -5.9863 z M231.3915546875 20 l-2.9199 0 l-0.92773 -10.635 l-3.5742 10.635 l-1.8945 0 l-3.5742 -10.635 l-0.9375 10.635 l-2.9297 0 l1.1816 -14.111 l4.1797 0 l3.0078 8.8574 l3.0469 -8.8574 l4.1797 0 z M241.41604375 20.19531 c-3.0273 0 -5.3906 -1.4551 -5.8203 -4.1016 l3.0273 -0.69336 c0.19531 1.582 1.3574 2.4023 2.9102 2.4023 c1.1914 0 2.1387 -0.52734 2.1289 -1.7188 c-0.0097656 -1.3281 -1.5723 -1.748 -3.291 -2.2754 c-2.0703 -0.64453 -4.2871 -1.4063 -4.2871 -4.0039 c0 -2.627 2.1484 -4.1113 4.9805 -4.1113 c2.4805 0 4.9805 1.0059 5.5469 3.7109 l-2.832 0.70313 c-0.26367 -1.4063 -1.2109 -2.0215 -2.5391 -2.0215 c-1.1816 0 -2.1875 0.48828 -2.1875 1.6504 c0 1.084 1.3867 1.4453 2.9883 1.9238 c2.1289 0.64453 4.6484 1.4648 4.6484 4.2773 c0 2.998 -2.5098 4.2578 -5.2734 4.2578 z M253.0517671875 20.19531 c-0.86914 0 -1.6016 -0.72266 -1.6016 -1.6016 s0.73242 -1.6211 1.6016 -1.6211 c0.88867 0 1.6211 0.74219 1.6211 1.6211 s-0.73242 1.6016 -1.6211 1.6016 z"></path></g></svg>
